# xmcd
#
# Track frame offsets: 
#        150
#        16098
#        26262
#        54542
#        65756
#        86392
#        105769
#        130835
#        146862
#        154128
#        167385
#        181870
#        197109
#        211572
#
# Disc length: 2973 seconds
#
# Revision: 5
# Processed by: cddbd v1.5.2PL0 Copyright (c) Steve Scherf et al.
# Submitted via: ExactAudioCopy v1.0b3
#
DISCID=a90b9b0e
DTITLE=Various Artist - Blues Guitar Women [Disc 2]
DYEAR=2005
DGENRE=Electric Blues
TTITLE0=Bryant, Precious - Fool Me Good
TTITLE1=Hinton, Algia Mae - Going Down This Road
TTITLE2=Foley, Sue - Doggie Treats
TTITLE3=Block, Rory - Fixin' To Die
TTITLE4=McIlwaine, Ellen - Dead End Street
TTITLE5=Stuart, Alice - Rather Be The Devil
TTITLE6=Hemphill, Jessie Mae - Streamline Train
TTITLE7=Adegbalola, Gaye with Rory Block - Nothing's Changed
TTITLE8=Baker, Etta - One Dime Blues
TTITLE9=Kelly, JoAnn - Ain't Nothing In Ramblin'
TTITLE10=Delaney, Mattie - Down The Big Road Blues
TTITLE11=Thomas, Elvie - Motherless Child Blues
TTITLE12=Wiley, Geeshie - Skinny Legs Blues
TTITLE13=Memphis Minnie - In My Girlish Days
EXTD=YEAR: 2005 ID3G: 0
EXTT0=
EXTT1=
EXTT2=
EXTT3=
EXTT4=
EXTT5=
EXTT6=
EXTT7=
EXTT8=
EXTT9=
EXTT10=
EXTT11=
EXTT12=
EXTT13=
PLAYORDER=
